<?xml version="1.0" encoding="UTF-8" standalone="no"?>
<!-- Created with Inkscape (http://www.inkscape.org/) -->

<svg
   width="48"
   height="48.000004"
   viewBox="0 0 12.7 12.700002"
   version="1.1"
   id="svg5"
   inkscape:export-filename="/home/ghazwulshaf/Pictures/ghazwul.png"
   inkscape:export-xdpi="96"
   inkscape:export-ydpi="96"
   inkscape:version="1.1.1 (3bf5ae0d25, 2021-09-20)"
   sodipodi:docname="logo_48.svg"
   xmlns:inkscape="http://www.inkscape.org/namespaces/inkscape"
   xmlns:sodipodi="http://sodipodi.sourceforge.net/DTD/sodipodi-0.dtd"
   xmlns="http://www.w3.org/2000/svg"
   xmlns:svg="http://www.w3.org/2000/svg">
  <sodipodi:namedview
     id="namedview7"
     pagecolor="#ffffff"
     bordercolor="#999999"
     borderopacity="1"
     inkscape:pageshadow="0"
     inkscape:pageopacity="0"
     inkscape:pagecheckerboard="0"
     inkscape:document-units="mm"
     showgrid="false"
     units="px"
     width="720px"
     inkscape:snap-smooth-nodes="true"
     inkscape:snap-bbox="true"
     inkscape:bbox-nodes="false"
     inkscape:snap-bbox-edge-midpoints="false"
     inkscape:bbox-paths="false"
     inkscape:zoom="5.2675044"
     inkscape:cx="7.8784937"
     inkscape:cy="30.754602"
     inkscape:window-width="1366"
     inkscape:window-height="700"
     inkscape:window-x="0"
     inkscape:window-y="0"
     inkscape:window-maximized="1"
     inkscape:current-layer="layer1"
     fit-margin-top="0"
     fit-margin-left="0"
     fit-margin-right="0"
     fit-margin-bottom="0" />
  <defs
     id="defs2" />
  <g
     inkscape:label="Layer 1"
     inkscape:groupmode="layer"
     id="layer1">
    <path
       id="rect846"
       style="fill:#9c45ff;fill-opacity:1;stroke:none;stroke-width:0.435822"
       d="m -426.25181,103.8243 c -14.65792,0 -26.45833,11.80042 -26.45833,26.45833 v 137.14719 c 0,14.65791 11.80041,26.45833 26.45833,26.45833 h 137.14718 c 14.65792,0 26.45834,-11.80042 26.45834,-26.45833 V 130.28263 c 0,-14.65791 -11.80042,-26.45833 -26.45834,-26.45833 z m 68.57359,26.24026 a 68.79161,68.791605 0 0 1 0.47646,0.0331 h -0.47646 v 26.24233 a 42.516448,42.516446 0 0 0 -42.51627,42.51626 42.516448,42.516446 0 0 0 42.51627,42.51627 42.516448,42.516446 0 0 0 40.4394,-29.3951 h -40.37738 v -26.24233 h 40.37738 27.08775 a 68.79161,68.791605 0 0 1 0.94723,6.53035 68.79161,68.791605 0 0 1 0.31729,6.59081 68.79161,68.791605 0 0 1 -0.31729,6.59082 68.79161,68.791605 0 0 1 -0.94723,6.53035 68.79161,68.791605 0 0 1 -67.52715,55.6705 68.79161,68.791605 0 0 1 -68.79166,-68.79167 68.79161,68.791605 0 0 1 68.79166,-68.79166 z" />
    <path
       id="path3177"
       style="fill:none;stroke:#000000;stroke-width:0.242673"
       d="M 254.46239,99.893861 A 36.262471,36.262471 0 0 0 218.2,136.15625 h 55.80538 a 58.762246,58.762238 0 0 1 -30.4555,34.57308 36.262471,36.262471 0 0 0 10.91251,1.6893 36.262471,36.262471 0 0 0 36.26238,-36.26238 36.262471,36.262471 0 0 0 -36.26238,-36.262389 z" />
    <circle
       style="fill:none;stroke:#000000;stroke-width:0.149983"
       id="circle3503"
       cx="293.03183"
       cy="80.093231"
       r="22.411894" />
    <circle
       style="fill:none;stroke:#000000;stroke-width:0.0926968"
       id="circle3753"
       cx="132.97086"
       cy="242.77448"
       r="13.851635" />
    <circle
       style="fill:none;stroke:#000000;stroke-width:0.144037"
       id="path3777"
       cx="344.02518"
       cy="169.6039"
       r="36.311787" />
    <circle
       style="fill:none;stroke:#000000;stroke-width:0.144037"
       id="circle3865"
       cx="240.89301"
       cy="23.004469"
       r="36.311787" />
    <path
       id="path4250"
       style="fill:#9c45ff;fill-opacity:1;stroke:none;stroke-width:0.213461"
       d="m -127.21572,2.3796099 a 95.077308,95.0773 0 0 0 -95.07739,95.0773981 95.077308,95.0773 0 0 0 95.07739,95.077402 95.077308,95.0773 0 0 0 93.329712,-76.94259 95.077308,95.0773 0 0 0 1.309481,-9.02528 95.077308,95.0773 0 0 0 0.438216,-9.109532 95.077308,95.0773 0 0 0 -0.438216,-9.10952 95.077308,95.0773 0 0 0 -1.309481,-9.025288 h -37.438542 -55.80538 v 36.26962 h 55.80538 a 58.762246,58.762238 0 0 1 -55.89117,40.6275 58.762246,58.762238 0 0 1 -58.7623,-58.762312 58.762246,58.762238 0 0 1 58.7623,-58.762298 h 95.031933 V 2.4250899 h -94.373573 a 95.077308,95.0773 0 0 0 -0.65836,-0.0455 z" />
    <circle
       style="fill:none;stroke:#000000;stroke-width:0.121839"
       id="circle3281"
       cx="60.130737"
       cy="220.95103"
       r="18.20631" />
    <rect
       style="fill:none;stroke:#000000;stroke-width:0.264583"
       id="rect4261"
       width="95.032089"
       height="36.269852"
       x="300.00101"
       y="-11.727651" />
    <path
       id="path4265"
       style="fill:none;stroke:#000000;stroke-width:0.806782"
       d="M 852.83203,1155.9219 H 711.38867 v 358.9961 a 359.34731,359.34728 0 0 0 141.43164,-221.9805 359.34731,359.34728 0 0 0 4.94922,-34.1113 359.34731,359.34728 0 0 0 1.65625,-34.4297 359.34731,359.34728 0 0 0 -1.65625,-34.4297 359.34731,359.34728 0 0 0 -4.9375,-34.0449 z"
       transform="scale(0.26458333)" />
    <path
       id="path4269"
       style="fill:none;stroke:#000000;stroke-width:0.806782"
       d="m 500.07812,865.04883 a 359.34731,359.34728 0 0 0 -359.34765,359.34767 359.34731,359.34728 0 0 0 359.34765,359.3476 359.34731,359.34728 0 0 0 211.31055,-68.8261 v -358.9961 h 141.44336 a 359.34731,359.34728 0 0 0 -0.0117,-0.066 h -141.5 -210.91797 v 137.082 H 711.32031 A 222.09353,222.0935 0 0 1 500.07812,1446.4902 222.09353,222.0935 0 0 1 277.98438,1224.3965 222.09353,222.0935 0 0 1 500.07812,1002.3027 h 359.17579 v -137.082 h -356.6875 a 359.34731,359.34728 0 0 0 -2.48829,-0.17187 z"
       transform="scale(0.26458333)" />
    <path
       id="path4452"
       style="fill:#9c45ff;fill-opacity:1;stroke:none;stroke-width:0.0142566"
       d="M 6.35,1.3357538e-6 A 6.3499939,6.3499933 0 0 0 0,6.3500013 6.3499939,6.3499933 0 0 0 6.35,12.700001 6.3499939,6.3499933 0 0 0 12.583275,7.5611834 6.3499939,6.3499933 0 0 0 12.670732,6.9584051 6.3499939,6.3499933 0 0 0 12.7,6.3500013 6.3499939,6.3499933 0 0 0 12.670732,5.7415975 6.3499939,6.3499933 0 0 0 12.583275,5.1388193 H 10.082842 6.355729 v 2.4223641 h 3.727113 A 3.9245947,3.9245942 0 0 1 6.35,10.2746 3.9245947,3.9245942 0 0 1 2.425401,6.3500013 3.9245947,3.9245942 0 0 1 6.35,2.425403 V 0.00303884 H 6.39397 A 6.3499939,6.3499933 0 0 0 6.35,0 Z"
       inkscape:export-filename="/home/ghazwulshaf/Pictures/logo_48.png"
       inkscape:export-xdpi="6.4116182"
       inkscape:export-ydpi="6.4116182" />
    <circle
       style="fill:none;stroke:#000000;stroke-width:0.377078"
       id="circle4862"
       cx="346.51877"
       cy="329.50085"
       r="95.061462" />
  </g>
</svg>
