<svg xmlns="http://www.w3.org/2000/svg" width="867" height="476" fill="none" viewBox="0 0 867 476">
  <g clip-path="url(#a)">
    <path fill="#FAF6FF" d="M132.257 406.722c-19.252 14.334-24.709 39.553-24.709 39.553s25.759 1.98 45.011-12.353c19.253-14.334 24.709-39.553 24.709-39.553s-25.758-1.98-45.011 12.353Z"/>
    <path fill="#FAF6FF" d="M140.277 413.452c-9.253 22.131-32.427 33.535-32.427 33.535s-8.171-24.477 1.082-46.607c9.253-22.131 32.426-33.536 32.426-33.536s8.172 24.477-1.081 46.608Z"/>
    <path fill="#F0E3FF" d="M694.19 349.475a191.64 191.64 0 0 1-1.612-41.584l1.612-22.969c-8.881 17.648-6.874 40.877 0 64.553Zm6.925 3.842a140.894 140.894 0 0 1-.775-24.752l.775-13.672c-4.272 10.505-3.307 24.332 0 38.424Z"/>
    <path fill="#F5ECFF" d="M731.898 370.226v7.685a2.319 2.319 0 0 1-2.309 2.305h-3.847a.768.768 0 0 0-.77.769v63.016a2.318 2.318 0 0 1-2.308 2.305h-46.938a2.307 2.307 0 0 1-2.308-2.305v-63.016a.773.773 0 0 0-.769-.769h-4.617a2.308 2.308 0 0 1-2.309-2.305v-7.685a2.306 2.306 0 0 1 2.309-2.306h61.557a2.313 2.313 0 0 1 2.309 2.306Z"/>
    <path fill="#E6E6E6" d="M725.042 381.83h-51.555v2.305h51.555v-2.305Z"/>
    <path fill="#F0E3FF" d="M724.973 415.755c-17.252 7.13-34.691 7.208-52.324 0v-16.242a82.272 82.272 0 0 1 52.324 0v16.242Z"/>
    <path fill="#FEB8B8" d="M436.004 167.415c38.511 0 69.73-31.18 69.73-69.642 0-38.462-31.219-69.642-69.73-69.642s-69.731 31.18-69.731 69.642c0 38.462 31.22 69.642 69.731 69.642Z"/>
    <path fill="#2F2E41" d="M501.133 37.692a80.519 80.519 0 0 0-45.816-34.978l-8.56 6.24V.851a74.22 74.22 0 0 0-13.846-.805l-7.386 6.674V.6a79.837 79.837 0 0 0-30.941 10.589 79.723 79.723 0 0 0-24.084 22.1c-16.039 23.092-18.747 55.219-2.971 78.497 4.33-13.292 9.586-25.763 13.917-39.054 3.404.464 6.854.48 10.262.05l5.268-12.278 1.472 11.758c16.331-1.42 40.552-4.54 56.033-7.398l-1.505-9.021 9.007 7.495c4.742-1.09 7.559-2.08 7.326-2.835 11.514 18.538 25.605 30.379 37.118 48.917 4.373-26.14 9.406-47.875-5.294-71.73Z"/>
    <path fill="#EBDAFF" d="M585.974 276.859c-2.397-14.407-4.871-29.091-11.575-42.07-4.407-8.502-11.401-16.603-20.83-18.284a20.139 20.139 0 0 1-5.424-1.254c-2.763-1.329-39.89-22.496-45.791-26.183-5.067-3.165-13.065-9.025-17.098-9.025-4.057-.089-19.615 3.527-80.336-1.214 0 0-16.681 6.567-29.589 14.53-.195-.129-63.023 33.566-65.384 33.478-4.47-.188-8.625 2.67-11.187 6.27-2.562 3.599-3.764 8.055-5.022 12.363 13.722 30.522 26.278 61.082 40.002 91.603a7.81 7.81 0 0 1 .992 3.759 9.147 9.147 0 0 1-1.707 3.759c-6.73 10.798-6.516 24.378-5.781 37.068.736 12.69 1.646 26.095-4.033 37.469-1.544 3.123-3.553 5.982-5.022 9.104-3.44 7.073-4.683 29.695-2.674 37.294l251.744 7.203c-5.413-14.86 18.715-195.87 18.715-195.87Z"/>
    <path fill="#FBBEBE" d="M271.977 338.426a44.32 44.32 0 0 0-.15 10.948l3.608 51.751c.338 4.878.672 9.744 1.13 14.609.866 9.443 2.159 18.81 3.764 28.164a5.018 5.018 0 0 0 5.148 4.877c15.883 3.357 32.293 3.223 48.502 2.308 24.735-1.378 88.017-3.987 91.883-9.003 3.867-5.016 1.614-13.129-3.428-17.185-5.041-4.056-88.55-13.945-88.55-13.945.816-6.457 3.277-12.539 5.612-18.671 4.194-10.875 8.112-22.107 8.187-33.757.075-11.65-4.319-23.898-13.875-30.572-7.86-5.479-17.98-6.496-27.558-6.27-6.969.2-19.01-1.467-25.375 1.254-5.037 2.215-7.957 10.566-8.898 15.492Z"/>
    <path fill="#EBDAFF" d="M293.011 246.399a12.977 12.977 0 0 0-2.786 4.453 210.257 210.257 0 0 0-17.703 72.253 7.225 7.225 0 0 1-.816 3.498 15.352 15.352 0 0 1-1.846 1.994 6.915 6.915 0 0 0 1.18 10.032c2.072-3.894 7.031-5.166 11.439-5.505 21.105-1.667 41.722 8.139 62.89 7.399-1.493-5.154-3.641-10.107-4.859-15.323-5.387-23.161 8.048-48.377-.188-70.686-1.646-4.464-4.395-8.853-8.726-10.809a23.246 23.246 0 0 0-5.587-1.477c-5.349-.965-15.998-5.091-21.169-3.436-1.909.615-2.662 2.408-4.244 3.491-2.404 1.533-5.592 2.097-7.585 4.116Z"/>
    <path fill="#FBBEBE" d="M586.125 322.934c-6.365-2.721-18.406-1.054-25.375-1.254-9.578-.226-19.698.791-27.558 6.27-9.556 6.674-13.95 18.922-13.875 30.572.075 11.65 3.993 22.882 8.187 33.757 2.335 6.132 4.796 12.214 5.612 18.672 0 0-83.509 9.888-88.551 13.944-5.041 4.056-7.294 12.169-3.428 17.185 3.867 5.016 124.503 10.052 140.386 6.695a5.026 5.026 0 0 0 3.584-1.375 5.014 5.014 0 0 0 1.564-3.502c1.605-9.354 2.898-18.721 3.764-28.164.458-4.865.792-9.731 1.13-14.609l3.608-51.751a44.32 44.32 0 0 0-.15-10.948c-.941-4.926-3.861-13.277-8.898-15.492Z"/>
    <path fill="#EBDAFF" d="M566.404 242.283c-1.582-1.083-2.335-2.876-4.244-3.491-5.171-1.655-15.82 2.471-21.169 3.436a23.246 23.246 0 0 0-5.587 1.477c-4.331 1.956-7.08 6.345-8.726 10.809-8.236 22.309 5.199 47.525-.188 70.686-1.218 5.216-3.366 10.169-4.859 15.323 21.168.74 41.785-9.066 62.89-7.399 4.408.339 9.367 1.611 11.439 5.505a6.939 6.939 0 0 0 2.039-2.388 6.916 6.916 0 0 0-.859-7.644 15.275 15.275 0 0 1-1.845-1.994 7.203 7.203 0 0 1-.816-3.498 210.28 210.28 0 0 0-17.704-72.253 12.962 12.962 0 0 0-2.786-4.453c-1.993-2.019-5.181-2.583-7.585-4.116Z"/>
    <path fill="#FBBEBE" d="M415.352 451.247c10.394 0 18.82-8.415 18.82-18.796s-8.426-18.797-18.82-18.797-18.82 8.416-18.82 18.797 8.426 18.796 18.82 18.796Zm41.673 0c10.395 0 18.821-8.415 18.821-18.796s-8.426-18.797-18.821-18.797c-10.394 0-18.82 8.416-18.82 18.797s8.426 18.796 18.82 18.796Z"/>
    <path fill="#D7B5FF" d="M573.198 474.806H314.636a11.406 11.406 0 0 1-8.047-3.335 11.372 11.372 0 0 1-3.339-8.037V306.772a11.372 11.372 0 0 1 3.339-8.037 11.406 11.406 0 0 1 8.047-3.335h258.562a11.41 11.41 0 0 1 8.048 3.335 11.376 11.376 0 0 1 3.339 8.037v156.662a11.376 11.376 0 0 1-3.339 8.037 11.41 11.41 0 0 1-8.048 3.335Z"/>
    <path fill="#FAF6FF" d="M443.29 392.627c4.161 0 7.533-3.369 7.533-7.524 0-4.155-3.372-7.524-7.533-7.524-4.161 0-7.534 3.369-7.534 7.524 0 4.155 3.373 7.524 7.534 7.524ZM867 443.206H0v26.609h51.282V476h764.455v-6.185H867v-26.609Z"/>
    <path fill="#EBDAFF" d="M371.882 123.73c-11.204 0-20.287-9.808-20.287-21.908V90.869c0-12.1 9.083-21.908 20.287-21.908v54.769Zm129.487-54.768c11.204 0 20.287 9.808 20.287 21.907v10.953c0 12.099-9.083 21.908-20.287 21.908V68.961Z"/>
    <path fill="#EBDAFF" d="M512 92.59h-3.219c0-44.082-33.211-79.945-74.033-79.945s-74.033 35.863-74.033 79.945h-3.219c0-45.998 34.655-83.42 77.252-83.42C477.345 9.17 512 46.591 512 92.59Z"/>
  </g>
  <defs>
    <clipPath id="a">
      <path fill="#fff" d="M0 0h867v476H0z"/>
    </clipPath>
  </defs>
</svg>
